<svg xmlns="http://www.w3.org/2000/svg" width="202" height="46.096" viewBox="0 0 202 46.096">
  <g id="AT_Primary_Color_Digital" transform="translate(0.05 -0.017)">
    <path id="Path_642" data-name="Path 642" d="M801.985,213.784V212.32a.375.375,0,0,0-.357-.375H794.58a3.575,3.575,0,1,1,0-7.15h7.048a.36.36,0,0,0,.357-.357v-1.464a.375.375,0,0,0-.357-.375h-7.473a5.747,5.747,0,0,0-5.754,5.754h0a5.747,5.747,0,0,0,5.754,5.754h7.473A.314.314,0,0,0,801.985,213.784Z" transform="translate(-654.23 -168.096)" fill="black"/>
    <path id="Path_643" data-name="Path 643" d="M521.674,204.6v-1.447a.349.349,0,0,0-.358-.357H509.757a.349.349,0,0,0-.357.357V204.6a.36.36,0,0,0,.357.357h4.477v8.971a.349.349,0,0,0,.358.357h1.89a.36.36,0,0,0,.357-.357v-8.971h4.46A.344.344,0,0,0,521.674,204.6Z" transform="translate(-422.725 -168.262)" fill="black"/>
    <path id="Path_644" data-name="Path 644" d="M890.916,202.8H879.358a.349.349,0,0,0-.358.357V204.6a.349.349,0,0,0,.358.357h4.46v8.971a.36.36,0,0,0,.358.357h1.89a.36.36,0,0,0,.358-.357v-8.971h4.494a.349.349,0,0,0,.358-.357v-1.447A.34.34,0,0,0,890.916,202.8Z" transform="translate(-729.406 -168.262)" fill="black"/>
    <path id="Path_645" data-name="Path 645" d="M964.164,202.7h-1.89a.378.378,0,0,0-.375.375v10.793a.378.378,0,0,0,.375.375h1.89a.364.364,0,0,0,.358-.375V203.075A.353.353,0,0,0,964.164,202.7Z" transform="translate(-798.194 -168.179)" fill="black"/>
    <path id="Path_646" data-name="Path 646" d="M606.578,206.766a3.974,3.974,0,0,0-3.983-3.966h-9.737a.349.349,0,0,0-.357.357V213.95a.349.349,0,0,0,.357.357h1.89a.36.36,0,0,0,.357-.357v-3.2h6.145l2.2,3.268a.7.7,0,0,0,.562.306h2.111a.366.366,0,0,0,.306-.562l-2.247-3.337A4.048,4.048,0,0,0,606.578,206.766Zm-4.426,1.787H595.1v-3.575h7.048a1.788,1.788,0,0,1,0,3.575Z" transform="translate(-491.678 -168.262)" fill="black"/>
    <path id="Path_647" data-name="Path 647" d="M1118.885,203.3h-2.2a.226.226,0,0,0-.221.221v7.643l-8.137-7.49a1.4,1.4,0,0,0-.953-.375h-1.4a.683.683,0,0,0-.681.681V214.5a.225.225,0,0,0,.221.221h2.2a.225.225,0,0,0,.221-.221v-7.643l8.137,7.49a1.4,1.4,0,0,0,.953.375h1.4a.683.683,0,0,0,.681-.681v-10.52A.225.225,0,0,0,1118.885,203.3Z" transform="translate(-917.183 -168.677)" fill="black"/>
    <path id="Path_648" data-name="Path 648" d="M1000.625,202.7h-6.571a5.747,5.747,0,0,0-5.754,5.754h0a5.747,5.747,0,0,0,5.754,5.754h6.571a5.747,5.747,0,0,0,5.754-5.754h0A5.747,5.747,0,0,0,1000.625,202.7Zm3.115,5.771a3.574,3.574,0,0,1-3.575,3.575h-5.652a3.574,3.574,0,0,1-3.575-3.575h0a3.574,3.574,0,0,1,3.575-3.575h5.652a3.574,3.574,0,0,1,3.575,3.575Z" transform="translate(-820.1 -168.179)" fill="black"/>
    <path id="Path_649" data-name="Path 649" d="M469.949,86.16h3.762a1.219,1.219,0,0,0,1-.528l1.839-2.724,7.814-11.576a.3.3,0,0,1,.494,0l5.209,7.712h-7.541a.935.935,0,0,0-.8.426l-1.924,2.843a.385.385,0,0,0,.323.6h12.546l1.839,2.724a1.177,1.177,0,0,0,1,.528h3.762a.631.631,0,0,0,.528-.987l-11.9-17.6a4.06,4.06,0,0,0-1.447-1.294,3.923,3.923,0,0,0-1.872-.477,4.012,4.012,0,0,0-3.32,1.77L469.4,85.156A.655.655,0,0,0,469.949,86.16Z" transform="translate(-389.453 -54.584)" fill="black"/>
    <path id="Path_650" data-name="Path 650" d="M1007.349,86.16h3.762a1.219,1.219,0,0,0,1-.528l1.839-2.724,7.814-11.576a.3.3,0,0,1,.494,0l5.209,7.712h-7.541a.935.935,0,0,0-.8.426l-1.924,2.843a.385.385,0,0,0,.323.6h12.546l1.839,2.724a1.177,1.177,0,0,0,1,.528h3.762a.631.631,0,0,0,.528-.987l-11.9-17.6a4.059,4.059,0,0,0-1.447-1.294,3.923,3.923,0,0,0-1.872-.477,4.012,4.012,0,0,0-3.319,1.77L1006.8,85.156A.655.655,0,0,0,1007.349,86.16Z" transform="translate(-835.37 -54.584)" fill="black"/>
    <path id="Path_651" data-name="Path 651" d="M697.459,203.221a2.348,2.348,0,0,0-.834-.749,2.4,2.4,0,0,0-1.09-.272,2.312,2.312,0,0,0-1.906,1.021l-6.809,10.095a.366.366,0,0,0,.306.562h2.162a.71.71,0,0,0,.579-.306l1.055-1.566,4.494-6.656a.175.175,0,0,1,.289,0l3,4.443h-4.324a.543.543,0,0,0-.46.238l-1.107,1.634a.215.215,0,0,0,.187.34h7.218l1.056,1.566a.71.71,0,0,0,.579.306h2.162a.366.366,0,0,0,.306-.562Z" transform="translate(-569.894 -167.765)" fill="black"/>
    <path id="Path_652" data-name="Path 652" d="M653.8,86.077H665.39a10.172,10.172,0,0,0,4.256-.936l.919.681a1.215,1.215,0,0,0,.732.238h5.4a.37.37,0,0,0,.221-.664l-3.83-2.86a10.092,10.092,0,0,0,2.468-6.656,10.171,10.171,0,0,0-10.18-10.18H653.78a10.188,10.188,0,0,0,.017,20.377Zm-3.643-14.64a6.306,6.306,0,0,1,4.46-1.856h9.976a6.3,6.3,0,0,1,4.9,10.248l-.885-.664a1.216,1.216,0,0,0-.732-.238h-5.4a.37.37,0,0,0-.221.664l3.354,2.5a6.93,6.93,0,0,1-1.038.085H654.6a6.3,6.3,0,0,1-6.3-6.3A6.226,6.226,0,0,1,650.154,71.437Z" transform="translate(-534.079 -54.501)" fill="black"/>
    <path id="Path_653" data-name="Path 653" d="M857.063,86.16H864.2a10.186,10.186,0,0,0,10.18-10.18V66.6a.8.8,0,0,0-.8-.8h-3.081a.8.8,0,0,0-.8.8v9.38a6.3,6.3,0,0,1-6.3,6.3H857.88a6.3,6.3,0,0,1-6.3-6.3V66.6a.8.8,0,0,0-.8-.8H847.7a.8.8,0,0,0-.8.8v9.38A10.171,10.171,0,0,0,857.063,86.16Z" transform="translate(-702.771 -54.584)" fill="black"/>
    <path id="Path_654" data-name="Path 654" d="M80.445,44.02c-6.911-7.065-15.117-15.61-18.487-19.781C54.467,14.944,59.54,8.509,65.72,7.47c5.975-.987,13.959-1.209,23.492-.443A.794.794,0,0,0,89.6,5.513C48.679-13.315,20.931,20.357.2,44.394a1,1,0,0,0,.749,1.651H8.623a2.357,2.357,0,0,0,1.8-.834c9.72-11.252,20.615-23.424,33.332-30.523a57.21,57.21,0,0,1,6.894-3.3.3.3,0,0,1,.392.375C47.879,20.2,53.922,28.426,65.583,40.1H42.3c.868-.97,2.792-3.388,4.2-5.056a.8.8,0,0,0-.613-1.311H37.614a2.357,2.357,0,0,0-1.8.834c-2.451,2.843-5.754,6.894-8.222,9.839a.994.994,0,0,0,.766,1.634h51.24A1.194,1.194,0,0,0,80.445,44.02Z" transform="translate(0)" fill="black"/>
  </g>
</svg>
