<svg xmlns="http://www.w3.org/2000/svg" viewBox="0 0 252 28.282"><path data-name="Union 21" d="M134.474 14.06c0-7.75 7.75-14.309 17.629-14.052 9.794 0 16.777 6.473 16.777 13.882 0 8.346-7.92 14.393-17.288 14.393-9.283-.001-17.118-5.792-17.118-14.223zm5.28-.341a11.792 11.792 0 0012.009 11.582c7.153 0 11.667-4.514 11.667-10.645a11.519 11.519 0 00-11.838-11.752c-7.154.083-11.838 4.596-11.838 10.815zM82.44 27.089l-1.363-5.109a18.2 18.2 0 0010.3 3.407c2.641 0 6.729-1.363 6.729-4.259 0-6.387-16.182-5.2-16.182-13.882 0-5.109 6.045-7.154 11.838-7.154a23.83 23.83 0 016.982.938v4.514a11.833 11.833 0 00-7.409-2.556c-2.64 0-6.046.938-6.046 3.747 0 5.621 16.18 5.536 16.18 13.116 0 4.343-5.279 8.432-12.6 8.432a28.017 28.017 0 01-8.43-1.194zm147.843.6v-.084c2.385-.766 2.13-3.748 2.13-5.621v-15.5c0-1.875.255-4.854-2.13-5.621v-.17h14.989a6.191 6.191 0 002.215-.17h.17v4.768h-.17c-1.447-1.448-3.406-1.618-5.536-1.618a28.7 28.7 0 00-4.769.256v7.58h5.621a4.962 4.962 0 002.043-.256h.171v4.343h-.171c-.766-1.191-2.725-1.107-4.173-1.107h-3.491v9.709l5.962.511a12.85 12.85 0 008.687-2.384h.17l-2.129 5.364zm-17.543-.084v-.086c2.384-.766 2.045-3.746 2.045-5.621V3.673h-4.173a8.947 8.947 0 00-5.622 1.618h-.171l1.619-4.854h.17a13.1 13.1 0 001.788.256h18.737a5.614 5.614 0 002.129-.256h.171L227.9 5.291h-.172c-.595-1.448-2.468-1.618-4-1.618h-4.259v18.652h.086c0 2.3-.086 3.916 2.47 5.194v.086zm-16.521 0v-.086c2.384-.766 2.043-3.746 2.043-5.621V6.48c0-1.875.341-4.854-2.043-5.621v-.17h8.941v.17c-2.385.766-2.044 3.832-2.044 5.621v15.414c0 1.875-.255 4.854 2.044 5.621v.086zm-24.188 0v-.086c2.387-.766 2.129-3.746 2.129-5.621V6.48c0-1.875.258-4.854-2.129-5.621v-.17h8.943v.17c-2.385.766-2.044 3.832-2.044 5.621v17.8l6.387.341a12.765 12.765 0 008.346-2.469h.171l-2.471 5.45zm-65.149 0v-.086c2.386-.766 2.129-3.832 2.129-5.621v-15.5c0-1.873.257-4.854-2.129-5.621V.693h9.027v.17c-2.385.766-2.13 3.746-2.13 5.621v15.414c0 1.875-.255 4.854 2.13 5.621v.086zm-82.522 0v-.086c2.383-.766 2.128-3.746 2.128-5.621V6.48c0-1.875.255-4.854-2.128-5.621v-.17h8.94v.17c-2.384.766-2.043 3.832-2.043 5.621v17.8l6.473.341a12.768 12.768 0 008.346-2.469h.171l-2.471 5.45zm105.856-.086c-2.3 0-4.428-.766-5.279-1.787l-10.476-12.095 6.132-7.153c1.534-1.959 4.344-4.429 1.193-5.706V.694h8.43l-10.729 12.093 9.539 10.816a14.331 14.331 0 005.619 3.832v.084zm-59.273 0v-.084c2.3-.937 1.96-1.363.683-4.173l-2.557-5.791H57.23l-2.47 5.791c-1.021 2.3-1.277 3.491.937 4.173v.084h-8.6v-.084c2.726-1.193 3.49-3.491 4.6-5.791L59.533 4.61c.6-1.448 1.448-3.15-.768-3.746v-.17h7.411l9.793 20.95c1.106 2.3 1.959 4.6 4.6 5.791v.084zm-12.518-13.03h9.282l-4.6-10.3zM0 27.43v-.086c2.386-.766 2.129-3.746 2.129-5.621V6.48c0-1.875.257-4.854-2.043-5.621v-.17H11.5c6.132 0 10.731 2.555 10.731 7.153 0 4.684-5.024 7.665-10.307 7.665a7.6 7.6 0 01-3.406-.6c4-.17 8.432-2.386 8.432-6.3 0-3.577-2.9-5.025-6.644-5.025a21.8 21.8 0 00-3.32.255v18.4c0 2.3-.086 3.918 2.471 5.109v.086z"/></svg>