<?xml version="1.0" encoding="utf-8"?>
<!-- Generator: Adobe Illustrator 19.2.1, SVG Export Plug-In . SVG Version: 6.00 Build 0)  -->
<svg version="1.1" id="layer" xmlns="http://www.w3.org/2000/svg" xmlns:xlink="http://www.w3.org/1999/xlink" x="0px" y="0px"
	 viewBox="0 0 652 652" style="enable-background:new 0 0 652 652;" xml:space="preserve">
<style type="text/css">
	.st0{fill:#222222;}
	.st1{fill:#E93840;}
</style>
<path class="st0" d="M39.7,353.7c0.4,8.6,5.5,11.4,13.2,11.4c5.5,0,11.2-2.1,11.2-7.5c0-6.4-10-7.7-20.1-10.6
	c-10-3-20.5-7.7-20.5-21.1c0-16,15.4-22.2,28.5-22.2c13.9,0,27.9,7.1,28,23.6H61.9c0.3-6.7-5.7-8.8-11.3-8.8c-3.9,0-8.8,1.4-8.8,6.3
	c0,5.6,10.1,6.7,20.3,9.6c10.1,3,20.3,7.9,20.3,21.1c0,18.5-15.1,24.5-30.5,24.5c-16.1,0-30.3-7.4-30.4-26.1
	C21.5,353.7,39.7,353.7,39.7,353.7z"/>
<path class="st0" d="M102.6,356c0.3,7.3,4.3,12.1,11.4,12.1c4,0,7.9-1.9,9.5-5.8h15.6c-3,12.3-13.9,17.6-25.3,17.6
	c-16.6,0-27.8-10.4-27.8-28.3c0-16.3,12.4-28,27.4-28c18.2,0,27.4,14.3,26.6,32.4H102.6z M123.3,346.2c-0.3-5.9-4.3-10.9-9.9-10.9
	c-5.9,0-9.8,4.4-10.8,10.9H123.3z"/>
<path class="st0" d="M145.2,325.1h16.2v9.3h0.2c2.4-6.8,8.1-10.3,15.3-10.3c1.3,0,2.6,0.1,3.9,0.4v15.9c-2.2-0.6-4.1-1-6.4-1
	c-8.2,0-12.6,5.9-12.6,12.6v26.3h-16.7V325.1z"/>
<path class="st0" d="M235.7,371.8c0,8.7-1.6,25.1-25.4,25.1c-11.9,0-23-2.8-25-17H202c0.4,2.4,1.3,3.8,2.8,4.6
	c1.5,0.8,3.5,1.1,6.1,1.1c7.9,0,8.7-5.8,8.7-12.4v-5h-0.2c-3,4.9-8.1,7.8-13.5,7.8c-15.4,0-22.4-11.5-22.4-26.4
	c0-14.1,7.9-26,22.4-26c6.1,0,10.7,2.8,13.6,8.2h0.2v-6.7h16C235.7,325.1,235.7,371.8,235.7,371.8z M210,336.9
	c-7.3,0-9.7,6.8-9.7,13.3c0,6.2,2.7,12.5,9.6,12.5c7.1,0,10.1-5.7,10.1-12.4C220,343.6,217.4,336.9,210,336.9"/>
<path class="st0" d="M257.9,356c0.3,7.3,4.3,12.1,11.4,12.1c4,0,7.9-1.9,9.5-5.8h15.6c-3,12.3-13.9,17.6-25.3,17.6
	c-16.6,0-27.8-10.4-27.8-28.3c0-16.3,12.5-28,27.5-28c18.2,0,27.4,14.3,26.6,32.4H257.9z M278.6,346.2c-0.3-5.9-4.3-10.9-9.9-10.9
	c-5.9,0-9.8,4.4-10.8,10.9H278.6z"/>
<polygon class="st0" points="314.8,304.8 366.8,304.8 366.8,320.2 333,320.2 333,335.2 362.3,335.2 362.3,350 333,350 333,378.3 
	314.8,378.3 "/>
<path class="st0" d="M383.2,356c0.3,7.3,4.3,12.1,11.4,12.1c4,0,7.9-1.9,9.5-5.8h15.6c-3,12.3-13.9,17.6-25.3,17.6
	c-16.6,0-27.8-10.4-27.8-28.3c0-16.3,12.4-28,27.5-28c18.2,0,27.4,14.3,26.6,32.4H383.2z M403.9,346.2c-0.3-5.9-4.3-10.9-9.9-10.9
	c-5.9,0-9.8,4.4-10.8,10.9H403.9z"/>
<path class="st0" d="M425.8,325.1H442v9.3h0.2c2.4-6.8,8.1-10.3,15.3-10.3c1.3,0,2.6,0.1,3.9,0.4v15.9c-2.2-0.6-4.1-1-6.4-1
	c-8.2,0-12.5,5.9-12.5,12.6v26.3h-16.7C425.8,378.3,425.8,325.1,425.8,325.1z"/>
<path class="st0" d="M467.8,325.1H484v9.3h0.2c2.4-6.8,8.1-10.3,15.3-10.3c1.3,0,2.6,0.1,3.9,0.4v15.9c-2.2-0.6-4.1-1-6.4-1
	c-8.2,0-12.5,5.9-12.5,12.6v26.3h-16.7C467.8,378.3,467.8,325.1,467.8,325.1z"/>
<path class="st0" d="M507.6,341.5c0.3-6.9,3.4-11.5,7.9-14.2c4.5-2.6,10.4-3.7,16.2-3.7c12.1,0,23.7,2.8,23.7,17.8v23.2
	c0,4.5,0,9.4,2,13.6h-16.8c-0.6-1.6-0.8-3.3-1-5c-4.3,4.7-10.7,6.6-16.8,6.6c-9.7,0-17.4-5.1-17.4-16.1c0-17.3,18.1-16,29.6-18.4
	c2.8-0.6,4.4-1.6,4.4-4.9c0-4-4.6-5.5-8.1-5.5c-4.6,0-7.5,2.2-8.3,6.7L507.6,341.5L507.6,341.5z M528.1,369.1
	c7.9,0,10.6-4.7,10.2-15.7c-2.4,1.5-6.7,1.9-10.3,2.9c-3.7,0.9-6.9,2.6-6.9,6.8C521.2,367.3,524.4,369.1,528.1,369.1"/>
<path class="st0" d="M563.1,325.1h16.2v9.3h0.2c2.4-6.8,8.1-10.3,15.3-10.3c1.3,0,2.6,0.1,3.9,0.4v15.9c-2.2-0.6-4.1-1-6.4-1
	c-8.2,0-12.6,5.9-12.6,12.6v26.3h-16.7V325.1z"/>
<rect x="604.8" y="325.1" class="st0" width="16.7" height="53.1"/>
<rect x="604.8" y="304.8" class="st1" width="16.7" height="13.3"/>
<path class="st1" d="M468.5,276.1c11.6,11.9,25.5,20.7,41.3,25.2c39.5,11.3,81.3-6.6,111.7-42.8c-25.9-18.2-54.5-19.9-88.7,7.8
	C532.8,266.3,497.3,297.3,468.5,276.1"/>
</svg>
