<svg xmlns="http://www.w3.org/2000/svg" width="772" height="228" viewBox="0 0 772 227.98" shape-rendering="geometricPrecision" image-rendering="optimizeQuality" fill-rule="evenodd" clip-rule="evenodd"><g fill-rule="nonzero"><g fill="#2b4276"><path d="m163.8 51.4c5.27 5.61 12.66 9.52 20.84 9.52 9.86-.1 16.81-3.8 16.81-10.53 0-15.68-45.4-.56-45.4-29.2 0-12.54 13.1-21.2 29.1-21.2 11.65 0 21.1 3.7 28 10.75l-9.63 8.63c-6.39-6.27-12.22-8.4-19-8.4-10.76 0-14.8 5.27-14.8 9.52 0 15.8 45.4 0 45.4 29.2 0 14.68-14.89 23.53-31 23.53-9.85 0-21.28-3.69-30.1-13l9.85-8.85"/><path d="m591.1 46.94l10.31-25.2 10.19 25.2h-20.5m-171.4 0l10.3-25.2 10.19 25.2h-20.49m-80.7 0l10.31-25.2 10.19 25.2h-20.5m-65.3-9.63v-23.53h19.49c9.19 0 13.33 5.49 13.33 11.76 0 6.28-4.14 11.77-13.33 11.77h-19.49m428.9-16.81c0-4.25 4-9.52 14.8-9.52 6.83 0 12.66 2.13 19 8.4l9.64-8.63c-6.95-7-16.36-10.75-28-10.75-16 0-29.1 8.63-29.1 21.2 0 28.68 45.4 13.56 45.4 29.2 0 6.73-6.95 10.43-16.8 10.54-8.18 0-15.57-3.92-20.84-9.53l-6.92 6.22c1.04-2.4 1.61-5 1.61-7.89 0-29.2-45.4-13.45-45.4-29.2 0-4.25 4-9.52 14.79-9.52 6.84 0 12.66 2.13 19 8.4l9.64-8.63c-6.94-7-16.36-10.75-28-10.75-16 0-29.1 8.63-29.1 21.2 0 28.68 45.4 13.56 45.4 29.2 0 6.73-6.95 10.43-16.81 10.54-8.18 0-15.57-3.92-20.83-9.53l-9.47 8.51-24.78-58.5h-29.1v11.65h16.1l-17.73 40.6v-11h-13v16.81h-27.67v-58h-12.99v28.1h-34.98v12.32h23.98c-2.8 11.99-12.21 19-23.86 19-12.66 0-24.1-10.65-24.1-24.31 0-13.67 11.43-24.31 24.1-24.31 7.96 0 14.78 3.69 19.27 10.19l10.76-8.1c-7.84-9.85-18.83-14.45-30-14.45-20.72 0-37.2 15.52-37.71 35.66l-14.48-34.2h-74.7v12.32h20.61v50.66l-26.67-62.98h-29.1v11.65h16.1l-23.49 53.75-14.1-20.1c9.41-2.91 16.47-10.98 16.47-21.2 0-13.78-9.64-24.1-25.32-24.1h-80.8v12.32h20.62v58h12.99v-58h13.66v23.53h-8.41v12.32h8.41v22.2h12.99v-22.2h15.91l14.67 22.2h24.61l5.37-13.21h29.81l5.37 13.21h23.88v-58h27.76l-25.37 58h13.89l5.38-13.21h29.79l5.38 13.21h14l-3.56-8.4c6.74 6.14 15.82 9.86 25.95 9.86 19.27 0 30.1-11.35 34.86-22.1v20.64h59.6l5.38-13.21h29.8l5.38 13.21h14l-4.5-10.63c8.72 8.62 19.7 12.1 29.2 12.1 11.33 0 22-4.38 27.42-12.1 8.71 8.61 19.68 12.1 29.2 12.1 16.1 0 31-8.85 31-23.52 0-29.2-45.4-13.45-45.4-29.2"/></g><g fill="#00b6ec"><path d="m153.9 97.7c8.85-9.3 20.29-13 30.1-13 16.1 0 31 8.86 31 23.53 0 29.2-45.4 13.44-45.4 29.2 0 4.25 4 9.52 14.8 9.52 6.82 0 12.65-2.13 19-8.4l9.63 8.63c-6.94 7.1-16.35 10.75-28 10.75-16 0-29.1-8.62-29.1-21.2 0-28.68 45.4-13.56 45.4-29.2 0-6.72-6.95-10.43-16.81-10.53-8.18 0-15.57 3.92-20.84 9.52l-9.86-8.85"/><path d="m611.6 111l-10.19 25.2-10.31-25.2h20.5m-171.4 0l-10.19 25.2-10.31-25.2h20.5m-80.7 0l-10.19 25.2-10.31-25.2h20.5m-66.3 9.64c9.19 0 13.33 5.49 13.33 11.76 0 6.27-4.14 11.76-13.33 11.76h-19.49v-23.52h19.49m454.8-12.44c0-14.67-14.91-23.52-31-23.52-9.52 0-20.49 3.46-29.2 12.1-5.37-7.69-16.1-12.1-27.41-12.1-9.52 0-20.5 3.46-29.2 12.1l4.5-10.63h-14l-5.38 13.22h-29.8l-5.38-13.22h-59.6v20.64c-4.73-10.74-15.58-22.1-34.85-22.1-10.13 0-19.21 3.72-25.95 9.85l3.57-8.4h-14l-5.38 13.22h-29.8l-5.38-13.22h-13.89l25.36 58h-27.75v-58h-23.88l-5.37 13.22h-29.81l-5.37-13.22h-24.61l-14.67 22.2h-15.91v-22.2h-13v22.2h-8.4v12.33h8.4v23.52h-13.65v-58h-12.99v58h-20.62v12.32h80.8c15.68 0 25.32-10.3 25.32-24.1 0-10.2-7.1-18.26-16.47-21.2l14.1-20.1 23.48 53.74h-16.1v11.65h29.1l26.67-62.97v50.65h-20.61v12.32h74.7l14.47-34.2c.52 20.1 16.99 35.65 37.71 35.65 11.2 0 22.2-4.59 30-14.45l-10.76-8.1c-4.49 6.49-11.31 10.19-19.27 10.19-12.66 0-24.1-10.65-24.1-24.31 0-13.67 11.43-24.31 24.1-24.31 11.65 0 21.1 7.1 23.86 19h-23.98v12.33h34.97v28.1h13v-58h27.67v16.81h13v-11l17.73 40.59h-16.1v11.65h29.1l24.78-58.5 9.47 8.5c5.26-5.6 12.65-9.52 20.84-9.52 9.85.11 16.8 3.81 16.8 10.53 0 15.68-45.4.56-45.4 29.2 0 12.56 13.1 21.2 29.1 21.2 11.65 0 21.1-3.69 28-10.75l-9.63-8.63c-6.39 6.27-12.21 8.4-19 8.4-10.76 0-14.79-5.26-14.79-9.52 0-15.8 45.4 0 45.4-29.2 0-2.86-.57-5.49-1.61-7.89l6.92 6.21c5.27-5.6 12.67-9.52 20.84-9.52 9.85.11 16.8 3.81 16.8 10.53 0 15.68-45.4.56-45.4 29.2 0 12.56 13.1 21.2 29.1 21.2 11.65 0 21.1-3.69 28-10.75l-9.64-8.63c-6.38 6.27-12.21 8.4-19 8.4-10.76 0-14.8-5.26-14.8-9.52 0-15.8 45.4 0 45.4-29.2"/></g><path fill="#2b4276" d="m134.9 79.5h637.1v-1h-637.1z"/><g fill="#243e69"><path d="m306.2 197.3v-2.3h12.6v2.3h-5.1v20.7h-2.3v-20.7z"/><path d="m321.8 194.5h2.18v9.6c.89-1.16 1.86-2.04 2.92-2.61 1.06-.58 2.22-.87 3.45-.87 1.27 0 2.4.32 3.38.97.99.64 1.71 1.51 2.18 2.6.47 1.08.71 2.79.71 5.11v8.74h-2.19v-8.1c0-1.96-.08-3.26-.24-3.92-.27-1.12-.76-1.97-1.47-2.53-.72-.57-1.65-.85-2.8-.85-1.33 0-2.51.43-3.55 1.31-1.05.87-1.74 1.95-2.08 3.24-.2.84-.31 2.38-.31 4.63v6.22h-2.18v-23.54"/><path d="m355.6 212.4l1.84.96c-.61 1.19-1.3 2.15-2.1 2.88-.79.73-1.68 1.28-2.67 1.66-.99.38-2.11.57-3.36.57-2.77 0-4.93-.91-6.5-2.72-1.56-1.82-2.34-3.87-2.34-6.16 0-2.16.66-4.08 1.98-5.76 1.68-2.15 3.93-3.23 6.74-3.23 2.9 0 5.21 1.11 6.94 3.3 1.23 1.55 1.85 3.49 1.87 5.81h-15.28c.04 1.97.67 3.59 1.89 4.85 1.22 1.27 2.72 1.9 4.52 1.9.86 0 1.7-.15 2.52-.46.82-.3 1.51-.69 2.09-1.19.57-.5 1.19-1.3 1.86-2.41m0-4.58c-.29-1.16-.72-2.09-1.28-2.79-.55-.7-1.29-1.26-2.21-1.69-.92-.43-1.88-.64-2.89-.64-1.67 0-3.1.54-4.3 1.61-.87.78-1.53 1.95-1.99 3.51h12.67"/><path d="m509.3 199.3l-1.8 1.39c-1-1.31-2.2-2.29-3.6-2.96-1.4-.67-2.94-1-4.61-1-1.83 0-3.54.44-5.1 1.32-1.56.88-2.77 2.06-3.63 3.55-.85 1.48-1.28 3.15-1.28 5 0 2.8.96 5.14 2.88 7 1.92 1.88 4.33 2.81 7.26 2.81 3.22 0 5.91-1.26 8.1-3.78l1.8 1.38c-1.14 1.45-2.57 2.58-4.28 3.38-1.71.79-3.63 1.19-5.73 1.19-4 0-7.19-1.34-9.51-4-1.95-2.26-2.92-4.99-2.92-8.18 0-3.36 1.18-6.19 3.53-8.49 2.36-2.29 5.31-3.44 8.86-3.44 2.14 0 4.08.42 5.81 1.27 1.73.85 3.15 2.04 4.24 3.57"/><path d="m513.6 194.5h2.19v9.6c.88-1.16 1.86-2.04 2.92-2.61 1.06-.58 2.21-.87 3.45-.87 1.27 0 2.39.32 3.37.97.99.64 1.72 1.51 2.19 2.6.47 1.08.7 2.79.7 5.11v8.74h-2.19v-8.1c0-1.96-.08-3.26-.23-3.92-.27-1.12-.77-1.97-1.48-2.53-.71-.57-1.64-.85-2.79-.85-1.33 0-2.51.43-3.56 1.31-1.05.87-1.73 1.95-2.06 3.24-.22.84-.32 2.38-.32 4.63v6.22h-2.19v-23.54"/><path d="m541.1 200.6c2.62 0 4.79.95 6.51 2.84 1.56 1.73 2.34 3.77 2.34 6.14 0 2.37-.82 4.45-2.47 6.22-1.66 1.77-3.78 2.66-6.38 2.66-2.6 0-4.73-.89-6.38-2.66-1.66-1.77-2.49-3.85-2.49-6.22 0-2.35.79-4.4 2.36-6.13 1.71-1.9 3.88-2.85 6.51-2.85m0 2.14c-1.82 0-3.38.67-4.69 2-1.3 1.34-1.95 2.97-1.95 4.87 0 1.23.29 2.38.89 3.44.59 1.06 1.39 1.88 2.41 2.46 1 .57 2.12.87 3.34.87 1.21 0 2.32-.3 3.33-.87 1-.58 1.82-1.4 2.41-2.46.6-1.06.9-2.21.9-3.44 0-1.9-.65-3.53-1.97-4.87-1.31-1.34-2.86-2-4.67-2"/><path d="m554.8 194c.5 0 .93.18 1.28.53.35.36.53.78.53 1.28 0 .49-.18.91-.53 1.27-.35.35-.78.53-1.28.53-.49 0-.9-.18-1.25-.53-.36-.36-.53-.78-.53-1.27 0-.5.17-.92.53-1.28.35-.35.76-.53 1.25-.53m-1.08 7h2.19v16.98h-2.19v-16.98"/><path d="m576.9 204.6l-1.73 1.08c-1.5-1.99-3.54-2.98-6.13-2.98-2.08 0-3.79.67-5.16 1.99-1.37 1.34-2.05 2.95-2.05 4.85 0 1.24.31 2.41.94 3.5.63 1.09 1.5 1.94 2.59 2.54 1.1.61 2.33.9 3.69.9 2.49 0 4.53-.99 6.12-2.98l1.73 1.14c-.81 1.23-1.9 2.18-3.27 2.85-1.38.67-2.93 1-4.68 1-2.69 0-4.91-.85-6.68-2.56-1.77-1.71-2.66-3.79-2.66-6.23 0-1.64.42-3.17 1.24-4.58.83-1.41 1.97-2.51 3.42-3.3 1.44-.8 3.06-1.19 4.85-1.19 1.12 0 2.21.17 3.25.51 1.05.35 1.94.79 2.67 1.35.73.55 1.35 1.25 1.86 2.1"/><path d="m595.4 212.4l1.84.96c-.6 1.19-1.3 2.15-2.1 2.88-.79.73-1.68 1.28-2.67 1.66-.98.38-2.11.57-3.35.57-2.78 0-4.94-.91-6.51-2.72-1.56-1.82-2.34-3.87-2.34-6.16 0-2.16.66-4.08 1.98-5.76 1.68-2.15 3.93-3.23 6.74-3.23 2.89 0 5.2 1.11 6.94 3.3 1.23 1.55 1.84 3.49 1.87 5.81h-15.29c.05 1.97.68 3.59 1.89 4.85 1.22 1.27 2.73 1.9 4.52 1.9.87 0 1.71-.15 2.53-.46.82-.3 1.51-.69 2.09-1.19.56-.5 1.19-1.3 1.86-2.41m0-4.58c-.29-1.16-.72-2.09-1.28-2.79-.56-.7-1.29-1.26-2.21-1.69-.91-.43-1.88-.64-2.89-.64-1.67 0-3.1.54-4.3 1.61-.87.78-1.54 1.95-1.99 3.51h12.67"/><path d="m397.7 199.1l-3.06 2.92c-2.08-2.2-4.42-3.3-7-3.3-2.2 0-4.05.75-5.54 2.25-1.51 1.5-2.26 3.35-2.26 5.55 0 1.53.33 2.89 1 4.08.66 1.19 1.61 2.12 2.82 2.8 1.22.67 2.57 1 4.06 1 1.26 0 2.42-.24 3.47-.71 1.05-.47 2.21-1.34 3.47-2.59l2.96 3.1c-1.7 1.65-3.3 2.8-4.81 3.44-1.51.64-3.23.96-5.16.96-3.57 0-6.5-1.13-8.77-3.39-2.27-2.27-3.41-5.17-3.41-8.71 0-2.29.52-4.32 1.55-6.1 1.04-1.79 2.52-3.21 4.45-4.3 1.93-1.08 4-1.62 6.24-1.62 1.89 0 3.71.4 5.47 1.2 1.75.8 3.26 1.93 4.54 3.41"/><path d="m401.5 195h4.4v18.8h6.3v4.2h-10.7z"/><path d="m415.6 195h12.5v4.3h-8.2v4.2h8.2v4.2h-8.2v6h8.2v4.3h-12.5z"/><path d="m439.2 195h4.43l8.84 22.97h-4.55l-1.79-4.73h-9.38l-1.86 4.73h-4.54l8.85-22.97m2.24 6.1l-3.08 7.88h6.14l-3.06-7.88"/><path d="m456.1 195h4.63c2.54 0 4.34.23 5.42.68 1.08.46 1.94 1.21 2.59 2.26.66 1.05.99 2.3.99 3.73 0 1.51-.36 2.77-1.08 3.79-.73 1.02-1.82 1.78-3.28 2.3l5.44 10.21h-4.78l-5.16-9.72h-.4v9.72h-4.37v-22.97m4.37 8.99h1.37c1.39 0 2.35-.19 2.88-.55.52-.37.78-.98.78-1.82 0-.5-.13-.94-.39-1.31-.26-.37-.61-.64-1.05-.8-.43-.16-1.22-.24-2.39-.24h-1.2v4.72"/></g><g fill="#00a0e3"><path d="m355.9 227.8l45.95-40.1-1.19-1.36-45.95 40.1 1.19 1.36m89.8 0l45.96-40.1-1.19-1.36-45.96 40.1 1.19 1.36"/><path d="m401.3 187.8h89.8v-1.81h-89.8v1.81m-45.96 40.2h89.8v-1.81h-89.8v1.81"/></g><path d="m136.7 29.2c-7.87 3.09-11.73 3.63-17.78 3.63-3.04 0-6.62-.14-11.54-.15-5.51-.02-17.2-2-30.54-2-18.79 0-40.87 3.96-53.68 23-2.81-3.87-3-6.56-15.37-18.48l-6.3 19.3c13.3 16.23 21.48 30.41 21.48 30.41 19.5-50.92 58-39.1 77.7-42.1 25.73-3.94 29.1-7.63 35.99-13.59" fill="#fefefe"/><path d="m107.3 32.72v-1.29c-5.28-.001-17.1-2-30.54-2-9.48 0-19.84.99-29.52 4.44-9.67 3.44-18.66 9.36-25.2 19.1l1.08.72 1.04-.76c-1.32-1.81-2.1-3.5-4.11-6.23-2-2.72-5.2-6.43-11.41-12.43l-1.49-1.43-7.16 21.94.45.55c6.62 8.1 11.96 15.64 15.65 21.2 1.85 2.77 3.28 5 4.25 6.6.97 1.57 1.46 2.43 1.47 2.44l1.36 2.35.97-2.54c9.67-25.1 23.7-34.48 37.89-38.2 14.22-3.72 28.62-1.54 38.83-3.08 12.91-1.97 20.28-3.89 25.38-6.12 5.1-2.24 7.84-4.81 11.25-7.76l-1.32-2.18c-7.82 3.05-11.33 3.52-17.33 3.53-2.99 0-6.58-.13-11.51-.14v1.29 1.3c4.88.001 8.45.14 11.51.14 6.15.02 10.34-.58 18.28-3.71l-.47-1.21-.85-.98c-3.48 3-5.87 5.26-10.61 7.34-4.73 2.08-11.91 3.98-24.72 5.94-9.54 1.49-24.3-.72-39.1 3.13-14.87 3.84-29.83 14.1-39.65 39.8l1.21.47 1.12-.65c-.02-.04-8.24-14.26-21.61-30.57l-1 .82 1.23.4 6.3-19.3-1.23-.4-.9.93c6.15 5.93 9.24 9.53 11.1 12.1 1.88 2.56 2.61 4.16 4.11 6.22l1.09 1.5 1.03-1.54c6.23-9.26 14.68-14.84 23.95-18.1 9.27-3.3 19.35-4.28 28.65-4.28 13.25-.001 24.79 1.98 30.54 2v-1.3" fill="#2b4276"/><g fill="#00b6ec"><path d="m60.5 108.2l-8.64-23.1 31-2.5-4.7 25.7z"/><path d="m56.8 62.6c.02-6.67 5.16-12.1 11.47-12.1 6.33.02 11.44 5.45 11.42 12.1-.02 6.68-5.16 12.1-11.48 12.1-6.32-.02-11.43-5.44-11.41-12.1"/><path d="m103.5 52c-6.48 16.1-24.74 27.64-39.7 27.6-12.1-.03-18.52-8.56-16.93-20.1-7.12 5.65-12.39 14.1-12.4 14.1 3.06 11.62 13.16 19.47 26.62 19.51 21.4.05 42-11.36 55.4-41.1l2.84-7.63c-8.71 1.92-13.6 2.58-13.6 2.58-.68 1.48-1.4 3.11-2.19 5.06"/><path d="m39.66 136.1c8.36-12 22.72-20.93 35.1-20.89 12.37.03 18.82 8.95 16.5 20.99l11.66.06c4.95-19.48-6.69-34.3-25.5-34.4-19.47-.06-38.3 9.56-51.4 34.2l13.63.05"/></g><path d="m760.5 63.2h.9c1.05 0 1.55.4 1.7 1.3.25.95.4 1.7.65 2h2.05c-.2-.3-.35-.8-.6-2.05-.25-1.1-.7-1.7-1.5-2v-.1c1-.3 1.7-1 1.7-1.9 0-.8-.35-1.45-.8-1.8-.6-.35-1.3-.6-2.85-.6-1.35 0-2.4.1-3.15.25v8.2h1.9v-3.3m.05-3.7c.2-.05.55-.1 1.05-.1 1.2 0 1.75.5 1.75 1.25 0 .85-.85 1.2-1.9 1.2h-.9v-2.35m1.25-5.5c-4.7 0-8.45 3.65-8.45 8.2 0 4.65 3.75 8.3 8.45 8.3 4.75 0 8.4-3.65 8.4-8.3 0-4.55-3.65-8.2-8.4-8.2m0 1.65c3.65 0 6.3 2.95 6.3 6.6 0 3.6-2.65 6.5-6.25 6.5-3.7 0-6.4-2.9-6.4-6.55 0-3.6 2.7-6.55 6.35-6.55" fill="#2b4377"/></g></svg>