<?xml version="1.0" encoding="utf-8"?>
<!-- Generator: Adobe Illustrator 19.0.0, SVG Export Plug-In . SVG Version: 6.00 Build 0)  -->
<svg version="1.1" id="layer" xmlns="http://www.w3.org/2000/svg" xmlns:xlink="http://www.w3.org/1999/xlink" x="0px" y="0px"
	 viewBox="-153 -46 652 652" style="enable-background:new -153 -46 652 652;" xml:space="preserve">
<style type="text/css">
	.st0{fill:#FA4616;}
</style>
<path class="st0" d="M-39.6,197.8c-36.2,2.5-69.6,20.7-91.4,49.8c15.9,0.6,31.6,4.4,46,11.3C-76.8,234.2-60.9,212.8-39.6,197.8
	 M-21.7,197.8c36.2,2.5,69.6,20.7,91.4,49.8c-15.9,0.6-31.6,4.4-46,11.3C15.5,234.2-0.4,212.8-21.7,197.8 M-30.7,249.2
	c16.8,0,33.5,3.2,49.1,9.4c-8.8-25.4-26.1-46.9-49.1-60.8c-22.9,13.9-40.2,35.4-49.1,60.6C-64.1,252.3-47.5,249.2-30.7,249.2
	 M-117.6,330.4c4.3,6.3,11.5,10,19.1,10c7.9,0,16.3-3.4,16.3-11.4s-8-10-15.9-11.7c-14.2-3.2-26.4-6.2-26.4-21.8
	c0-14.5,14-22.1,27.9-22.1c10.3-0.7,20.2,4.6,25.3,13.6l-10.3,6.8c-3.2-5.6-9.3-9-15.7-9c-6.8,0-14.7,3.4-14.7,10.3
	c0,6.2,9,9,18.8,10.8c13.3,2.6,24.4,7.4,24.4,22.4c0,17-15,23.5-29.8,23.5c-12.7,0-21.8-3.4-29-13.9L-117.6,330.4 M36.6,273.5
	c-10.3-0.5-20,5.1-24.8,14.2h-0.2v-12.3H-0.9v36.4c0,17.1-6.9,28.7-23.1,28.7c-11.6,0-17.1-7.9-17.1-20.2v-44.8h-12.5v46.1
	c0,18.1,8.8,30.4,28.4,30.4c10.3,0.5,20-5.1,24.8-14.2h0.2v12.3h12.5v-36.4c0-17.1,6.9-28.7,23.1-28.7c11.6,0,17.1,7.9,17.1,20.2
	v44.9H65V304C65,286,56.3,273.5,36.6,273.5 M85.7,234.1h12.5v52h0.3c6.5-8.1,16.4-12.8,26.9-12.8c20.7-0.9,38.3,15.2,39.2,35.9
	c0,1.1,0,2.2,0,3.3c0.9,20.8-15.3,38.3-36,39.2c-0.4,0-0.9,0-1.3,0c-11.6,0.5-22.6-5.3-28.7-15.1h-0.3v13.3H85.7V234.1 M124.7,340.4
	c14.5,0.2,26.4-11.3,26.6-25.8c0-0.7,0-1.3,0-2c0-15.6-10.3-27.8-26.5-27.8c-14.5-0.2-26.4,11.3-26.6,25.8c0,0.7,0,1.3,0,2
	C98.2,328.2,108.5,340.4,124.7,340.4 M182.3,293.1c0-6.8-0.6-12.8-0.6-17.7h11.7c0,4,0.3,8.2,0.3,12.3h0.3
	c4.9-9.1,14.5-14.6,24.8-14.2c1.7,0,3.5,0.2,5.1,0.8l-0.8,12.7c-2.2-0.6-4.4-0.9-6.6-0.9c-15.1,0-21.9,10.7-21.9,27.8v36.4h-12.3
	L182.3,293.1 M300.8,336.6c-7.7,10.4-20.2,16.2-33.2,15.4c-23.5,0-37.8-17.6-37.8-39.2c-1.1-20.6,14.7-38.1,35.3-39.2
	c1-0.1,2-0.1,3,0c21,0,35.5,14.4,35.5,39v4h-60.3c0.5,13.2,11.2,23.7,24.4,23.9c9.3,0.4,18.2-3.8,23.8-11.3L300.8,336.6 M290,306
	c0.2-11.4-8.9-20.9-20.3-21.1c-0.7,0-1.5,0-2.2,0.1c-12.5-0.8-23.3,8.5-24.4,21H290z M322.2,234.1h12.5V350h-12.5V234.1z
	 M358.2,234.1h12.5V350h-12.5V234.1z M391.4,285c8-7.6,18.6-11.7,29.6-11.4c22.1-0.2,31.3,10.3,31.3,31.5v32.1c0,4.3,0.4,8.7,1.1,13
	h-11.9c-0.6-3.7-0.9-7.4-0.8-11.1h-0.3c-5.3,8.4-14.6,13.4-24.5,13.1c-15.1,0-27.8-7.7-27.8-22.2c0-24.7,28.7-26.2,47.1-26.2h4.8
	v-2.2c0-10.8-6.8-16.3-18.5-16.3c-8.2-0.1-16.1,2.8-22.2,8.2L391.4,285 M427.5,314.2c-15.7,0-26.1,4.3-26.1,14.4
	c0,9.4,6.9,13,16.3,13c14.4,0,21.8-10.3,22.1-22.5v-4.8L427.5,314.2L427.5,314.2z M461,260c4.4,0,8,3.6,8,8s-3.6,8-8,8
	c-4.4,0-8-3.6-8-8v0C453,263.6,456.6,260,461,260 M461,275c3.7,0,6.7-3,6.6-6.7c0-0.1,0-0.2,0-0.3c0.1-3.7-2.8-6.8-6.6-6.9
	c0,0,0,0-0.1,0c-3.8,0.2-6.8,3.4-6.6,7.3C454.5,272,457.4,274.8,461,275L461,275z M457.9,263.4h3.5c2.2,0,3.2,0.9,3.2,2.6
	c0.1,1.4-1,2.5-2.3,2.6c0,0-0.1,0-0.1,0l2.8,4.2h-1.5l-2.6-4h-1.5v4h-1.4L457.9,263.4z M459.3,267.6h1.5c1.2,0,2.5,0,2.5-1.5
	c0-1.2-1.1-1.4-2.2-1.4h-1.9L459.3,267.6z"/>
</svg>
